<?xml version="1.0" encoding="UTF-8" standalone="no"?>
<!DOCTYPE svg PUBLIC "-//W3C//DTD SVG 1.1//EN"
 "http://www.w3.org/Graphics/SVG/1.1/DTD/svg11.dtd">
<!-- Generated by graphviz version 2.24.0 (20090616.2323)
 -->
<!-- Title: prod_libs Pages: 1 -->
<svg width="2140pt" height="521pt"
 viewBox="0.00 0.00 2140.00 520.80" xmlns="http://www.w3.org/2000/svg" xmlns:xlink="http://www.w3.org/1999/xlink">
<g id="graph1" class="graph" transform="scale(1 1) rotate(0) translate(4 516.8)">
<title>prod_libs</title>
<polygon fill="white" stroke="white" points="-4,5 -4,-516.8 2137,-516.8 2137,5 -4,5"/>
<text text-anchor="middle" x="1066" y="-8.2" font-family="Times Roman,serif" font-size="14.00">Organisation des librairies</text>
<g id="graph2" class="cluster"><title>cluster_loto</title>
<polygon fill="none" stroke="black" points="1412,-32.8 1412,-252.8 1730,-252.8 1730,-32.8 1412,-32.8"/>
<text text-anchor="middle" x="1571" y="-236.2" font-family="Times Roman,serif" font-size="14.00">Loto</text>
</g>
<g id="graph3" class="cluster"><title>cluster_lotofoot</title>
<polygon fill="none" stroke="black" points="8,-32.8 8,-252.8 174,-252.8 174,-32.8 8,-32.8"/>
<text text-anchor="middle" x="91" y="-236.2" font-family="Times Roman,serif" font-size="14.00">Loto Foot 7&amp;15</text>
</g>
<g id="graph4" class="cluster"><title>cluster_keno</title>
<polygon fill="none" stroke="black" points="182,-104.8 182,-252.8 274,-252.8 274,-104.8 182,-104.8"/>
<text text-anchor="middle" x="228" y="-236.2" font-family="Times Roman,serif" font-size="14.00">Keno</text>
</g>
<g id="graph5" class="cluster"><title>cluster_rapido</title>
<polygon fill="none" stroke="black" points="282,-104.8 282,-252.8 372,-252.8 372,-104.8 282,-104.8"/>
<text text-anchor="middle" x="327" y="-236.2" font-family="Times Roman,serif" font-size="14.00">Rapido</text>
</g>
<g id="graph6" class="cluster"><title>cluster_cappuccino</title>
<polygon fill="none" stroke="black" points="380,-104.8 380,-252.8 470,-252.8 470,-104.8 380,-104.8"/>
<text text-anchor="middle" x="425" y="-236.2" font-family="Times Roman,serif" font-size="14.00">Amigo</text>
</g>
<g id="graph7" class="cluster"><title>cluster_oxo</title>
<polygon fill="none" stroke="black" points="478,-104.8 478,-252.8 570,-252.8 570,-104.8 478,-104.8"/>
<text text-anchor="middle" x="524" y="-236.2" font-family="Times Roman,serif" font-size="14.00">Oxo</text>
</g>
<g id="graph8" class="cluster"><title>cluster_joker</title>
<polygon fill="none" stroke="black" points="578,-32.8 578,-252.8 1182,-252.8 1182,-32.8 578,-32.8"/>
<text text-anchor="middle" x="880" y="-236.2" font-family="Times Roman,serif" font-size="14.00">Joker</text>
</g>
<g id="graph9" class="cluster"><title>cluster_lngn</title>
<polygon fill="none" stroke="black" points="1738,-104.8 1738,-252.8 2070,-252.8 2070,-104.8 1738,-104.8"/>
<text text-anchor="middle" x="1904" y="-236.2" font-family="Times Roman,serif" font-size="14.00">C&amp;M/C&amp;S</text>
</g>
<!-- PGEN -->
<g id="node1" class="node"><title>PGEN</title>
<polygon fill="yellow" stroke="black" points="1438,-512.8 1384,-512.8 1384,-476.8 1438,-476.8 1438,-512.8"/>
<text text-anchor="middle" x="1411" y="-490.6" font-family="Times Roman,serif" font-size="14.00">PGEN</text>
</g>
<!-- PGAM -->
<g id="node2" class="node"><title>PGAM</title>
<polygon fill="yellow" stroke="black" points="1439.22,-368.8 1382.78,-368.8 1382.78,-332.8 1439.22,-332.8 1439.22,-368.8"/>
<text text-anchor="middle" x="1411" y="-346.6" font-family="Times Roman,serif" font-size="14.00">PGAM</text>
</g>
<!-- PGEN&#45;&gt;PGAM -->
<g id="edge72" class="edge"><title>PGEN&#45;&gt;PGAM</title>
<path fill="none" stroke="black" d="M1407.59,-476.38C1405.83,-465.977 1403.88,-452.709 1403,-440.8 1401.82,-424.843 1401.82,-420.757 1403,-404.8 1403.62,-396.426 1404.76,-387.381 1406,-379.132"/>
<polygon fill="black" stroke="black" points="1409.46,-379.646 1407.59,-369.22 1402.55,-378.543 1409.46,-379.646"/>
</g>
<!-- PSITE -->
<g id="node3" class="node"><title>PSITE</title>
<polygon fill="yellow" stroke="black" points="1466,-440.8 1412,-440.8 1412,-404.8 1466,-404.8 1466,-440.8"/>
<text text-anchor="middle" x="1439" y="-418.6" font-family="Times Roman,serif" font-size="14.00">PSITE</text>
</g>
<!-- PGEN&#45;&gt;PSITE -->
<g id="edge68" class="edge"><title>PGEN&#45;&gt;PSITE</title>
<path fill="none" stroke="black" d="M1418.07,-476.631C1421.13,-468.762 1424.78,-459.371 1428.17,-450.653"/>
<polygon fill="black" stroke="black" points="1431.48,-451.802 1431.84,-441.213 1424.95,-449.265 1431.48,-451.802"/>
</g>
<!-- LTMP -->
<g id="node4" class="node"><title>LTMP</title>
<polygon fill="orange" stroke="black" points="1189,-296.8 1135,-296.8 1135,-260.8 1189,-260.8 1189,-296.8"/>
<text text-anchor="middle" x="1162" y="-274.6" font-family="Times Roman,serif" font-size="14.00">LTMP</text>
</g>
<!-- PGAM&#45;&gt;LTMP -->
<g id="edge74" class="edge"><title>PGAM&#45;&gt;LTMP</title>
<path fill="none" stroke="black" d="M1382.92,-342.681C1337.82,-329.641 1249.24,-304.025 1199.02,-289.506"/>
<polygon fill="black" stroke="black" points="1199.8,-286.086 1189.22,-286.671 1197.85,-292.811 1199.8,-286.086"/>
</g>
<!-- OTMP -->
<g id="node6" class="node"><title>OTMP</title>
<polygon fill="orange" stroke="black" points="2131.94,-220.8 2078.06,-220.8 2078.06,-184.8 2131.94,-184.8 2131.94,-220.8"/>
<text text-anchor="middle" x="2105" y="-198.6" font-family="Times Roman,serif" font-size="14.00">OTMP</text>
</g>
<!-- PGAM&#45;&gt;OTMP -->
<g id="edge76" class="edge"><title>PGAM&#45;&gt;OTMP</title>
<path fill="none" stroke="black" d="M1439.14,-349.749C1551.45,-345.09 1966.67,-323.318 2074,-252.8 2082.4,-247.281 2088.92,-238.617 2093.77,-230.041"/>
<polygon fill="black" stroke="black" points="2096.99,-231.426 2098.38,-220.923 2090.75,-228.267 2096.99,-231.426"/>
</g>
<!-- PSITE&#45;&gt;PGAM -->
<g id="edge70" class="edge"><title>PSITE&#45;&gt;PGAM</title>
<path fill="none" stroke="black" d="M1431.93,-404.631C1428.87,-396.762 1425.22,-387.371 1421.83,-378.653"/>
<polygon fill="black" stroke="black" points="1425.05,-377.265 1418.16,-369.213 1418.52,-379.802 1425.05,-377.265"/>
</g>
<!-- GTMP -->
<g id="node5" class="node"><title>GTMP</title>
<polygon fill="orange" stroke="black" points="1243.94,-220.8 1190.06,-220.8 1190.06,-184.8 1243.94,-184.8 1243.94,-220.8"/>
<text text-anchor="middle" x="1217" y="-198.6" font-family="Times Roman,serif" font-size="14.00">GTMP</text>
</g>
<!-- LTMP&#45;&gt;GTMP -->
<g id="edge78" class="edge"><title>LTMP&#45;&gt;GTMP</title>
<path fill="none" stroke="black" d="M1179.5,-260.714C1181.76,-258.124 1183.99,-255.44 1186,-252.8 1191.51,-245.555 1196.94,-237.294 1201.68,-229.603"/>
<polygon fill="black" stroke="black" points="1204.74,-231.306 1206.89,-220.931 1198.74,-227.702 1204.74,-231.306"/>
</g>
<!-- PLTO -->
<g id="node7" class="node"><title>PLTO</title>
<polygon fill="gray" stroke="black" points="1611,-220.8 1557,-220.8 1557,-184.8 1611,-184.8 1611,-220.8"/>
<text text-anchor="middle" x="1584" y="-198.6" font-family="Times Roman,serif" font-size="14.00">PLTO</text>
</g>
<!-- LTMP&#45;&gt;PLTO -->
<g id="edge80" class="edge"><title>LTMP&#45;&gt;PLTO</title>
<path fill="none" stroke="black" d="M1189,-278.03C1256.67,-275.878 1432.07,-268.876 1488,-252.8 1508.92,-246.788 1530.56,-235.983 1547.98,-225.951"/>
<polygon fill="black" stroke="black" points="1549.86,-228.908 1556.69,-220.806 1546.3,-222.882 1549.86,-228.908"/>
</g>
<!-- PEUR -->
<g id="node8" class="node"><title>PEUR</title>
<polygon fill="yellow" stroke="black" points="1722,-148.8 1668,-148.8 1668,-112.8 1722,-112.8 1722,-148.8"/>
<text text-anchor="middle" x="1695" y="-126.6" font-family="Times Roman,serif" font-size="14.00">PEUR</text>
</g>
<!-- LTMP&#45;&gt;PEUR -->
<g id="edge82" class="edge"><title>LTMP&#45;&gt;PEUR</title>
<path fill="none" stroke="black" d="M1189.24,-275.864C1228.19,-271.409 1297.67,-262.436 1321,-252.8 1368.99,-232.979 1367.86,-204.26 1416,-184.8 1514.26,-145.081 1552.61,-179.48 1658.12,-148.476"/>
<polygon fill="black" stroke="black" points="1659.33,-151.766 1667.86,-145.486 1657.27,-145.074 1659.33,-151.766"/>
</g>
<!-- POTO -->
<g id="node9" class="node"><title>POTO</title>
<polygon fill="yellow" stroke="black" points="1650,-148.8 1596,-148.8 1596,-112.8 1650,-112.8 1650,-148.8"/>
<text text-anchor="middle" x="1623" y="-126.6" font-family="Times Roman,serif" font-size="14.00">POTO</text>
</g>
<!-- LTMP&#45;&gt;POTO -->
<g id="edge84" class="edge"><title>LTMP&#45;&gt;POTO</title>
<path fill="none" stroke="black" d="M1189.39,-273.12C1207.83,-268.782 1232.45,-261.981 1253,-252.8 1304.79,-229.665 1307.91,-204.779 1361,-184.8 1453.22,-150.095 1487.98,-178.038 1586.15,-148.495"/>
<polygon fill="black" stroke="black" points="1587.35,-151.785 1595.85,-145.453 1585.26,-145.106 1587.35,-151.785"/>
</g>
<!-- PCLO -->
<g id="node10" class="node"><title>PCLO</title>
<polygon fill="yellow" stroke="black" points="1479,-220.8 1425,-220.8 1425,-184.8 1479,-184.8 1479,-220.8"/>
<text text-anchor="middle" x="1452" y="-198.6" font-family="Times Roman,serif" font-size="14.00">PCLO</text>
</g>
<!-- LTMP&#45;&gt;PCLO -->
<g id="edge86" class="edge"><title>LTMP&#45;&gt;PCLO</title>
<path fill="none" stroke="black" d="M1189.13,-277.43C1251.57,-274.085 1401.64,-264.882 1421,-252.8 1429.53,-247.479 1436.08,-238.86 1440.91,-230.266"/>
<polygon fill="black" stroke="black" points="1444.15,-231.615 1445.5,-221.107 1437.89,-228.482 1444.15,-231.615"/>
</g>
<!-- PSPT -->
<g id="node11" class="node"><title>PSPT</title>
<polygon fill="yellow" stroke="black" points="136,-220.8 82,-220.8 82,-184.8 136,-184.8 136,-220.8"/>
<text text-anchor="middle" x="109" y="-198.6" font-family="Times Roman,serif" font-size="14.00">PSPT</text>
</g>
<!-- LTMP&#45;&gt;PSPT -->
<g id="edge88" class="edge"><title>LTMP&#45;&gt;PSPT</title>
<path fill="none" stroke="black" d="M1134.78,-278.463C974.717,-276.436 162.206,-265.532 140,-252.8 131.057,-247.672 124.346,-238.815 119.499,-229.966"/>
<polygon fill="black" stroke="black" points="122.618,-228.376 115.106,-220.905 116.319,-231.43 122.618,-228.376"/>
</g>
<!-- PLFT -->
<g id="node12" class="node"><title>PLFT</title>
<polygon fill="yellow" stroke="black" points="148,-148.8 94,-148.8 94,-112.8 148,-112.8 148,-148.8"/>
<text text-anchor="middle" x="121" y="-126.6" font-family="Times Roman,serif" font-size="14.00">PLFT</text>
</g>
<!-- LTMP&#45;&gt;PLFT -->
<g id="edge90" class="edge"><title>LTMP&#45;&gt;PLFT</title>
<path fill="none" stroke="black" d="M1134.76,-278.473C978.141,-276.544 198.57,-266.279 178,-252.8 175.844,-251.387 149.591,-193.986 133.476,-158.432"/>
<polygon fill="black" stroke="black" points="136.541,-156.715 129.229,-149.048 130.164,-159.602 136.541,-156.715"/>
</g>
<!-- PKNO -->
<g id="node13" class="node"><title>PKNO</title>
<polygon fill="yellow" stroke="black" points="261.051,-220.8 206.949,-220.8 206.949,-184.8 261.051,-184.8 261.051,-220.8"/>
<text text-anchor="middle" x="234" y="-198.6" font-family="Times Roman,serif" font-size="14.00">PKNO</text>
</g>
<!-- LTMP&#45;&gt;PKNO -->
<g id="edge92" class="edge"><title>LTMP&#45;&gt;PKNO</title>
<path fill="none" stroke="black" d="M1134.96,-278.61C990.806,-277.521 317.691,-271.45 278,-252.8 267.103,-247.68 257.791,-238.453 250.578,-229.307"/>
<polygon fill="black" stroke="black" points="253.278,-227.069 244.558,-221.051 247.622,-231.193 253.278,-227.069"/>
</g>
<!-- PRPD -->
<g id="node14" class="node"><title>PRPD</title>
<polygon fill="yellow" stroke="black" points="359,-220.8 305,-220.8 305,-184.8 359,-184.8 359,-220.8"/>
<text text-anchor="middle" x="332" y="-198.6" font-family="Times Roman,serif" font-size="14.00">PRPD</text>
</g>
<!-- LTMP&#45;&gt;PRPD -->
<g id="edge94" class="edge"><title>LTMP&#45;&gt;PRPD</title>
<path fill="none" stroke="black" d="M1134.93,-278.506C1000.64,-276.974 410.994,-269.322 376,-252.8 365.112,-247.66 355.802,-238.429 348.588,-229.286"/>
<polygon fill="black" stroke="black" points="351.288,-227.049 342.566,-221.034 345.633,-231.175 351.288,-227.049"/>
</g>
<!-- PCAP -->
<g id="node15" class="node"><title>PCAP</title>
<polygon fill="yellow" stroke="black" points="457,-220.8 403,-220.8 403,-184.8 457,-184.8 457,-220.8"/>
<text text-anchor="middle" x="430" y="-198.6" font-family="Times Roman,serif" font-size="14.00">PCAP</text>
</g>
<!-- LTMP&#45;&gt;PCAP -->
<g id="edge96" class="edge"><title>LTMP&#45;&gt;PCAP</title>
<path fill="none" stroke="black" d="M1134.69,-278.37C1010.56,-276.337 504.299,-267.192 474,-252.8 463.125,-247.634 453.817,-238.399 446.601,-229.259"/>
<polygon fill="black" stroke="black" points="449.301,-227.022 440.577,-221.012 443.649,-231.151 449.301,-227.022"/>
</g>
<!-- POXO -->
<g id="node16" class="node"><title>POXO</title>
<polygon fill="gray" stroke="black" points="557.051,-220.8 502.949,-220.8 502.949,-184.8 557.051,-184.8 557.051,-220.8"/>
<text text-anchor="middle" x="530" y="-198.6" font-family="Times Roman,serif" font-size="14.00">POXO</text>
</g>
<!-- LTMP&#45;&gt;POXO -->
<g id="edge98" class="edge"><title>LTMP&#45;&gt;POXO</title>
<path fill="none" stroke="black" d="M1134.99,-278.194C1022.98,-275.606 599.574,-265.049 574,-252.8 563.141,-247.599 553.837,-238.357 546.618,-229.222"/>
<polygon fill="black" stroke="black" points="549.32,-226.987 540.591,-220.982 543.67,-231.119 549.32,-226.987"/>
</g>
<!-- PADD -->
<g id="node17" class="node"><title>PADD</title>
<polygon fill="yellow" stroke="black" points="1134.05,-220.8 1079.95,-220.8 1079.95,-184.8 1134.05,-184.8 1134.05,-220.8"/>
<text text-anchor="middle" x="1107" y="-198.6" font-family="Times Roman,serif" font-size="14.00">PADD</text>
</g>
<!-- LTMP&#45;&gt;PADD -->
<g id="edge106" class="edge"><title>LTMP&#45;&gt;PADD</title>
<path fill="none" stroke="black" d="M1144.5,-260.714C1142.24,-258.124 1140.01,-255.44 1138,-252.8 1132.49,-245.555 1127.06,-237.294 1122.32,-229.603"/>
<polygon fill="black" stroke="black" points="1125.26,-227.702 1117.11,-220.931 1119.26,-231.306 1125.26,-227.702"/>
</g>
<!-- PJKR -->
<g id="node18" class="node"><title>PJKR</title>
<polygon fill="gray" stroke="black" points="779,-220.8 725,-220.8 725,-184.8 779,-184.8 779,-220.8"/>
<text text-anchor="middle" x="752" y="-198.6" font-family="Times Roman,serif" font-size="14.00">PJKR</text>
</g>
<!-- LTMP&#45;&gt;PJKR -->
<g id="edge100" class="edge"><title>LTMP&#45;&gt;PJKR</title>
<path fill="none" stroke="black" d="M1134.89,-278.094C1067.84,-276.108 895.678,-269.495 841,-252.8 821.55,-246.861 801.654,-236.2 785.621,-226.244"/>
<polygon fill="black" stroke="black" points="787.448,-223.258 777.138,-220.82 783.677,-229.156 787.448,-223.258"/>
</g>
<!-- PADP -->
<g id="node19" class="node"><title>PADP</title>
<polygon fill="gray" stroke="black" points="904,-220.8 850,-220.8 850,-184.8 904,-184.8 904,-220.8"/>
<text text-anchor="middle" x="877" y="-198.6" font-family="Times Roman,serif" font-size="14.00">PADP</text>
</g>
<!-- LTMP&#45;&gt;PADP -->
<g id="edge102" class="edge"><title>LTMP&#45;&gt;PADP</title>
<path fill="none" stroke="black" d="M1134.93,-271.582C1083.68,-257.915 972.407,-228.242 914.193,-212.718"/>
<polygon fill="black" stroke="black" points="914.869,-209.276 904.305,-210.081 913.066,-216.04 914.869,-209.276"/>
</g>
<!-- PADN -->
<g id="node20" class="node"><title>PADN</title>
<polygon fill="gray" stroke="black" points="904.051,-148.8 849.949,-148.8 849.949,-112.8 904.051,-112.8 904.051,-148.8"/>
<text text-anchor="middle" x="877" y="-126.6" font-family="Times Roman,serif" font-size="14.00">PADN</text>
</g>
<!-- LTMP&#45;&gt;PADN -->
<g id="edge104" class="edge"><title>LTMP&#45;&gt;PADN</title>
<path fill="none" stroke="black" d="M1163.93,-260.727C1165.12,-239.399 1163.45,-204.367 1143,-184.8 1070.5,-115.437 1015,-176.378 913.767,-148.353"/>
<polygon fill="black" stroke="black" points="914.734,-144.989 904.15,-145.461 912.719,-151.692 914.734,-144.989"/>
</g>
<!-- PODD -->
<g id="node21" class="node"><title>PODD</title>
<polygon fill="yellow" stroke="black" points="1830.05,-220.8 1775.95,-220.8 1775.95,-184.8 1830.05,-184.8 1830.05,-220.8"/>
<text text-anchor="middle" x="1803" y="-198.6" font-family="Times Roman,serif" font-size="14.00">PODD</text>
</g>
<!-- LTMP&#45;&gt;PODD -->
<g id="edge108" class="edge"><title>LTMP&#45;&gt;PODD</title>
<path fill="none" stroke="black" d="M1189.32,-277.994C1299.7,-274.683 1708.05,-261.871 1734,-252.8 1749.55,-247.367 1764.62,-237.205 1776.69,-227.454"/>
<polygon fill="black" stroke="black" points="1779.15,-229.957 1784.54,-220.833 1774.64,-224.607 1779.15,-229.957"/>
</g>
<!-- PSCO -->
<g id="node22" class="node"><title>PSCO</title>
<polygon fill="yellow" stroke="black" points="2016,-220.8 1962,-220.8 1962,-184.8 2016,-184.8 2016,-220.8"/>
<text text-anchor="middle" x="1989" y="-198.6" font-family="Times Roman,serif" font-size="14.00">PSCO</text>
</g>
<!-- LTMP&#45;&gt;PSCO -->
<g id="edge110" class="edge"><title>LTMP&#45;&gt;PSCO</title>
<path fill="none" stroke="black" d="M1189.08,-277.711C1262.66,-274.77 1472.47,-266.506 1647,-260.8 1678.44,-259.772 1900.62,-264.047 1930,-252.8 1943.59,-247.597 1956.25,-237.839 1966.33,-228.314"/>
<polygon fill="black" stroke="black" points="1968.89,-230.696 1973.5,-221.156 1963.95,-225.739 1968.89,-230.696"/>
</g>
<!-- PMXN -->
<g id="node23" class="node"><title>PMXN</title>
<polygon fill="yellow" stroke="black" points="1921.22,-220.8 1864.78,-220.8 1864.78,-184.8 1921.22,-184.8 1921.22,-220.8"/>
<text text-anchor="middle" x="1893" y="-198.6" font-family="Times Roman,serif" font-size="14.00">PMXN</text>
</g>
<!-- LTMP&#45;&gt;PMXN -->
<g id="edge112" class="edge"><title>LTMP&#45;&gt;PMXN</title>
<path fill="none" stroke="black" d="M1189.29,-277.783C1315.57,-273.076 1837.09,-253.591 1839,-252.8 1851.67,-247.553 1863.2,-237.919 1872.33,-228.498"/>
<polygon fill="black" stroke="black" points="1874.95,-230.82 1879.11,-221.076 1869.78,-226.099 1874.95,-230.82"/>
</g>
<!-- L649 -->
<g id="node24" class="node"><title>L649</title>
<polygon fill="gray" stroke="black" points="1577.78,-148.8 1512.22,-148.8 1512.22,-112.8 1577.78,-112.8 1577.78,-148.8"/>
<text text-anchor="middle" x="1545" y="-126.6" font-family="Times Roman,serif" font-size="14.00">L649_20</text>
</g>
<!-- GTMP&#45;&gt;L649 -->
<g id="edge114" class="edge"><title>GTMP&#45;&gt;L649</title>
<path fill="none" stroke="black" d="M1244.11,-194.295C1255.16,-191.025 1268.12,-187.446 1280,-184.8 1374.93,-163.654 1404.73,-175.955 1502.16,-148.667"/>
<polygon fill="black" stroke="black" points="1503.15,-152.022 1511.8,-145.9 1501.22,-145.293 1503.15,-152.022"/>
</g>
<!-- ELOT -->
<g id="node25" class="node"><title>ELOT</title>
<polygon fill="white" stroke="black" points="1715.88,-76.8 1644.12,-76.8 1644.12,-40.8 1715.88,-40.8 1715.88,-76.8"/>
<text text-anchor="middle" x="1680" y="-54.6" font-family="Times Roman,serif" font-size="14.00">ELOT_19</text>
</g>
<!-- GTMP&#45;&gt;ELOT -->
<g id="edge116" class="edge"><title>GTMP&#45;&gt;ELOT</title>
<path fill="none" stroke="black" d="M1244.03,-187.079C1245.7,-186.273 1247.36,-185.506 1249,-184.8 1298.58,-163.448 1318.48,-176.185 1365,-148.8 1389.38,-134.448 1385.47,-116.99 1411,-104.8 1499.15,-62.7102 1533.97,-99.4043 1629,-76.8 1630.7,-76.3967 1632.41,-75.9572 1634.14,-75.489"/>
<polygon fill="black" stroke="black" points="1635.47,-78.7446 1644.06,-72.5437 1633.48,-72.034 1635.47,-78.7446"/>
</g>
<!-- LOTO -->
<g id="node26" class="node"><title>LOTO</title>
<polygon fill="white" stroke="black" points="1620.16,-76.8 1545.84,-76.8 1545.84,-40.8 1620.16,-40.8 1620.16,-76.8"/>
<text text-anchor="middle" x="1583" y="-54.6" font-family="Times Roman,serif" font-size="14.00">LOTO_14</text>
</g>
<!-- GTMP&#45;&gt;LOTO -->
<g id="edge118" class="edge"><title>GTMP&#45;&gt;LOTO</title>
<path fill="none" stroke="black" d="M1243.96,-190.924C1265.9,-180.83 1297.31,-165.371 1323,-148.8 1349.3,-131.83 1349.56,-117.892 1378,-104.8 1438.41,-76.9853 1460.47,-92.9042 1525,-76.8 1528.59,-75.9049 1532.28,-74.9173 1535.98,-73.8794"/>
<polygon fill="black" stroke="black" points="1537.11,-77.1962 1545.73,-71.0433 1535.15,-70.4745 1537.11,-77.1962"/>
</g>
<!-- SLOT -->
<g id="node27" class="node"><title>SLOT</title>
<polygon fill="white" stroke="black" points="1516,-76.8 1444,-76.8 1444,-40.8 1516,-40.8 1516,-76.8"/>
<text text-anchor="middle" x="1480" y="-54.6" font-family="Times Roman,serif" font-size="14.00">SLOT_21</text>
</g>
<!-- GTMP&#45;&gt;SLOT -->
<g id="edge120" class="edge"><title>GTMP&#45;&gt;SLOT</title>
<path fill="none" stroke="black" d="M1235.49,-184.518C1258.32,-162.833 1299.16,-126.853 1340,-104.8 1369.57,-88.8315 1405.66,-77.1386 1433.79,-69.5381"/>
<polygon fill="black" stroke="black" points="1434.98,-72.8443 1443.77,-66.9228 1433.21,-66.0731 1434.98,-72.8443"/>
</g>
<!-- CLOT -->
<g id="node28" class="node"><title>CLOT</title>
<polygon fill="white" stroke="black" points="1493.77,-148.8 1420.23,-148.8 1420.23,-112.8 1493.77,-112.8 1493.77,-148.8"/>
<text text-anchor="middle" x="1457" y="-126.6" font-family="Times Roman,serif" font-size="14.00">CLOT_13</text>
</g>
<!-- GTMP&#45;&gt;CLOT -->
<g id="edge122" class="edge"><title>GTMP&#45;&gt;CLOT</title>
<path fill="none" stroke="black" d="M1243.95,-194.976C1255.09,-191.772 1268.16,-188.059 1280,-184.8 1337.11,-169.085 1355.09,-169.35 1410.41,-150.653"/>
<polygon fill="black" stroke="black" points="1411.69,-153.914 1420,-147.348 1409.41,-147.295 1411.69,-153.914"/>
</g>
<!-- LF07 -->
<g id="node29" class="node"><title>LF07</title>
<polygon fill="white" stroke="black" points="166.165,-76.8 99.8349,-76.8 99.8349,-40.8 166.165,-40.8 166.165,-76.8"/>
<text text-anchor="middle" x="133" y="-54.6" font-family="Times Roman,serif" font-size="14.00">LF07_23</text>
</g>
<!-- GTMP&#45;&gt;LF07 -->
<g id="edge124" class="edge"><title>GTMP&#45;&gt;LF07</title>
<path fill="none" stroke="black" d="M1223.44,-184.476C1229.89,-162.406 1236.24,-125.702 1216,-104.8 1214.85,-103.611 378.406,-68.9483 176.483,-60.5971"/>
<polygon fill="black" stroke="black" points="176.398,-57.0907 166.262,-60.1744 176.109,-64.0847 176.398,-57.0907"/>
</g>
<!-- LF15 -->
<g id="node30" class="node"><title>LF15</title>
<polygon fill="white" stroke="black" points="82.1651,-76.8 15.8349,-76.8 15.8349,-40.8 82.1651,-40.8 82.1651,-76.8"/>
<text text-anchor="middle" x="49" y="-54.6" font-family="Times Roman,serif" font-size="14.00">LF15_27</text>
</g>
<!-- GTMP&#45;&gt;LF15 -->
<g id="edge126" class="edge"><title>GTMP&#45;&gt;LF15</title>
<path fill="none" stroke="black" d="M1217.12,-184.428C1216.15,-161.59 1210.67,-123.36 1186,-104.8 1139.03,-69.4657 216.818,-88.3891 92.2462,-75.7874"/>
<polygon fill="black" stroke="black" points="92.488,-72.2863 82.0917,-74.3273 91.4917,-79.215 92.488,-72.2863"/>
</g>
<!-- KENO -->
<g id="node31" class="node"><title>KENO</title>
<polygon fill="white" stroke="black" points="265.936,-148.8 190.064,-148.8 190.064,-112.8 265.936,-112.8 265.936,-148.8"/>
<text text-anchor="middle" x="228" y="-126.6" font-family="Times Roman,serif" font-size="14.00">KENO_22</text>
</g>
<!-- GTMP&#45;&gt;KENO -->
<g id="edge128" class="edge"><title>GTMP&#45;&gt;KENO</title>
<path fill="none" stroke="black" d="M1189.94,-186.134C1188.63,-185.631 1187.31,-185.182 1186,-184.8 992.088,-128.442 476.203,-187.451 278,-148.8 277.392,-148.681 276.781,-148.557 276.168,-148.426"/>
<polygon fill="black" stroke="black" points="276.71,-144.952 266.155,-145.87 274.979,-151.735 276.71,-144.952"/>
</g>
<!-- RAPD -->
<g id="node32" class="node"><title>RAPD</title>
<polygon fill="white" stroke="black" points="364.166,-148.8 289.834,-148.8 289.834,-112.8 364.166,-112.8 364.166,-148.8"/>
<text text-anchor="middle" x="327" y="-126.6" font-family="Times Roman,serif" font-size="14.00">RAPD_15</text>
</g>
<!-- GTMP&#45;&gt;RAPD -->
<g id="edge130" class="edge"><title>GTMP&#45;&gt;RAPD</title>
<path fill="none" stroke="black" d="M1189.94,-186.142C1188.63,-185.637 1187.31,-185.185 1186,-184.8 1013.1,-134.1 552.649,-184.283 376,-148.8 375.267,-148.653 374.53,-148.496 373.791,-148.331"/>
<polygon fill="black" stroke="black" points="374.674,-144.945 364.112,-145.772 372.885,-151.712 374.674,-144.945"/>
</g>
<!-- CAPU -->
<g id="node33" class="node"><title>CAPU</title>
<polygon fill="white" stroke="black" points="462.166,-148.8 387.834,-148.8 387.834,-112.8 462.166,-112.8 462.166,-148.8"/>
<text text-anchor="middle" x="425" y="-126.6" font-family="Times Roman,serif" font-size="14.00">CAPU_12</text>
</g>
<!-- GTMP&#45;&gt;CAPU -->
<g id="edge132" class="edge"><title>GTMP&#45;&gt;CAPU</title>
<path fill="none" stroke="black" d="M1189.94,-186.152C1188.63,-185.645 1187.31,-185.189 1186,-184.8 882.227,-94.7149 784.452,-212.146 474,-148.8 473.267,-148.651 472.531,-148.492 471.792,-148.325"/>
<polygon fill="black" stroke="black" points="472.681,-144.94 462.117,-145.747 470.879,-151.704 472.681,-144.94"/>
</g>
<!-- OXXO -->
<g id="node34" class="node"><title>OXXO</title>
<polygon fill="gray" stroke="black" points="562.21,-148.8 485.79,-148.8 485.79,-112.8 562.21,-112.8 562.21,-148.8"/>
<text text-anchor="middle" x="524" y="-126.6" font-family="Times Roman,serif" font-size="14.00">OXXO_30</text>
</g>
<!-- GTMP&#45;&gt;OXXO -->
<g id="edge134" class="edge"><title>GTMP&#45;&gt;OXXO</title>
<path fill="none" stroke="black" d="M1189.93,-186.165C1188.63,-185.654 1187.31,-185.195 1186,-184.8 925.096,-106.257 840.922,-203.507 574,-148.8 573.393,-148.676 572.783,-148.545 572.171,-148.409"/>
<polygon fill="black" stroke="black" points="572.731,-144.938 562.171,-145.793 570.959,-151.71 572.731,-144.938"/>
</g>
<!-- JKLO -->
<g id="node35" class="node"><title>JKLO</title>
<polygon fill="gray" stroke="black" points="832.104,-148.8 761.896,-148.8 761.896,-112.8 832.104,-112.8 832.104,-148.8"/>
<text text-anchor="middle" x="797" y="-126.6" font-family="Times Roman,serif" font-size="14.00">JKLO_29</text>
</g>
<!-- GTMP&#45;&gt;JKLO -->
<g id="edge136" class="edge"><title>GTMP&#45;&gt;JKLO</title>
<path fill="none" stroke="black" d="M1189.91,-186.239C1188.61,-185.708 1187.3,-185.224 1186,-184.8 1042.57,-138.06 992.665,-184.29 842.301,-148.693"/>
<polygon fill="black" stroke="black" points="842.796,-145.211 832.25,-146.228 841.128,-152.009 842.796,-145.211"/>
</g>
<!-- JKSL -->
<g id="node36" class="node"><title>JKSL</title>
<polygon fill="gray" stroke="black" points="653.944,-148.8 586.056,-148.8 586.056,-112.8 653.944,-112.8 653.944,-148.8"/>
<text text-anchor="middle" x="620" y="-126.6" font-family="Times Roman,serif" font-size="14.00">JKSL_18</text>
</g>
<!-- GTMP&#45;&gt;JKSL -->
<g id="edge138" class="edge"><title>GTMP&#45;&gt;JKSL</title>
<path fill="none" stroke="black" d="M1189.93,-186.182C1188.62,-185.666 1187.31,-185.201 1186,-184.8 966.388,-117.492 891.833,-200.099 664.307,-148.645"/>
<polygon fill="black" stroke="black" points="664.94,-145.199 654.407,-146.344 663.355,-152.018 664.94,-145.199"/>
</g>
<!-- JKOX -->
<g id="node37" class="node"><title>JKOX</title>
<polygon fill="gray" stroke="black" points="743.884,-148.8 672.116,-148.8 672.116,-112.8 743.884,-112.8 743.884,-148.8"/>
<text text-anchor="middle" x="708" y="-126.6" font-family="Times Roman,serif" font-size="14.00">JKOX_34</text>
</g>
<!-- GTMP&#45;&gt;JKOX -->
<g id="edge140" class="edge"><title>GTMP&#45;&gt;JKOX</title>
<path fill="none" stroke="black" d="M1189.92,-186.205C1188.62,-185.683 1187.31,-185.211 1186,-184.8 1004.92,-127.891 943.062,-190.921 754.026,-148.595"/>
<polygon fill="black" stroke="black" points="754.58,-145.131 744.049,-146.291 753.004,-151.952 754.58,-145.131"/>
</g>
<!-- JKKE -->
<g id="node38" class="node"><title>JKKE</title>
<polygon fill="gray" stroke="black" points="992.104,-148.8 921.896,-148.8 921.896,-112.8 992.104,-112.8 992.104,-148.8"/>
<text text-anchor="middle" x="957" y="-126.6" font-family="Times Roman,serif" font-size="14.00">JKKE_17</text>
</g>
<!-- GTMP&#45;&gt;JKKE -->
<g id="edge142" class="edge"><title>GTMP&#45;&gt;JKKE</title>
<path fill="none" stroke="black" d="M1189.86,-186.382C1188.57,-185.813 1187.28,-185.281 1186,-184.8 1110.49,-156.453 1083.29,-171.545 1001.97,-148.756"/>
<polygon fill="black" stroke="black" points="1002.91,-145.382 992.327,-145.948 1000.95,-152.104 1002.91,-145.382"/>
</g>
<!-- JKEU -->
<g id="node39" class="node"><title>JKEU</title>
<polygon fill="gray" stroke="black" points="1080.1,-148.8 1009.9,-148.8 1009.9,-112.8 1080.1,-112.8 1080.1,-148.8"/>
<text text-anchor="middle" x="1045" y="-126.6" font-family="Times Roman,serif" font-size="14.00">JKEU_16</text>
</g>
<!-- GTMP&#45;&gt;JKEU -->
<g id="edge144" class="edge"><title>GTMP&#45;&gt;JKEU</title>
<path fill="none" stroke="black" d="M1189.75,-186.64C1188.49,-186.001 1187.24,-185.384 1186,-184.8 1147.09,-166.448 1133.58,-165.549 1089.57,-148.92"/>
<polygon fill="black" stroke="black" points="1090.61,-145.571 1080.02,-145.249 1088.1,-152.105 1090.61,-145.571"/>
</g>
<!-- JOKR -->
<g id="node40" class="node"><title>JOKR</title>
<polygon fill="gray" stroke="black" points="1043,-76.8 971.003,-76.8 971.003,-40.8 1043,-40.8 1043,-76.8"/>
<text text-anchor="middle" x="1007" y="-54.6" font-family="Times Roman,serif" font-size="14.00">JOKR_28</text>
</g>
<!-- GTMP&#45;&gt;JOKR -->
<g id="edge146" class="edge"><title>GTMP&#45;&gt;JOKR</title>
<path fill="none" stroke="black" d="M1233.72,-184.728C1251.23,-163.576 1273.64,-128.439 1254,-104.8 1229.05,-74.7686 1118.19,-64.244 1053.79,-60.6301"/>
<polygon fill="black" stroke="black" points="1053.66,-57.1184 1043.49,-60.0886 1053.29,-64.1088 1053.66,-57.1184"/>
</g>
<!-- ADDN -->
<g id="node41" class="node"><title>ADDN</title>
<polygon fill="white" stroke="black" points="1174.21,-148.8 1097.79,-148.8 1097.79,-112.8 1174.21,-112.8 1174.21,-148.8"/>
<text text-anchor="middle" x="1136" y="-126.6" font-family="Times Roman,serif" font-size="14.00">ADDN_11</text>
</g>
<!-- GTMP&#45;&gt;ADDN -->
<g id="edge148" class="edge"><title>GTMP&#45;&gt;ADDN</title>
<path fill="none" stroke="black" d="M1196.56,-184.631C1186.68,-175.848 1174.67,-165.171 1163.95,-155.649"/>
<polygon fill="black" stroke="black" points="1166.23,-152.991 1156.43,-148.963 1161.58,-158.222 1166.23,-152.991"/>
</g>
<!-- LNGN -->
<g id="node42" class="node"><title>LNGN</title>
<polygon fill="gray" stroke="black" points="1860.18,-148.8 1745.82,-148.8 1745.82,-112.8 1860.18,-112.8 1860.18,-148.8"/>
<text text-anchor="middle" x="1803" y="-126.6" font-family="Times Roman,serif" font-size="14.00">LNGN_6 (C&amp;M)</text>
</g>
<!-- GTMP&#45;&gt;LNGN -->
<g id="edge150" class="edge"><title>GTMP&#45;&gt;LNGN</title>
<path fill="none" stroke="black" d="M1244.25,-200.198C1343.94,-190.643 1685.55,-157.597 1734,-148.8 1734.61,-148.689 1735.22,-148.576 1735.83,-148.461"/>
<polygon fill="black" stroke="black" points="1736.82,-151.832 1745.92,-146.401 1735.42,-144.973 1736.82,-151.832"/>
</g>
<!-- TIPS -->
<g id="node43" class="node"><title>TIPS</title>
<polygon fill="gray" stroke="black" points="2061.8,-148.8 1962.2,-148.8 1962.2,-112.8 2061.8,-112.8 2061.8,-148.8"/>
<text text-anchor="middle" x="2012" y="-126.6" font-family="Times Roman,serif" font-size="14.00">TIPS_8 (C&amp;S)</text>
</g>
<!-- GTMP&#45;&gt;TIPS -->
<g id="edge152" class="edge"><title>GTMP&#45;&gt;TIPS</title>
<path fill="none" stroke="black" d="M1244.18,-199.997C1281.2,-196.234 1349.57,-189.482 1408,-184.8 1646.67,-165.675 1712.43,-191.775 1951.92,-148.746"/>
<polygon fill="black" stroke="black" points="1952.77,-152.149 1961.98,-146.916 1951.52,-145.262 1952.77,-152.149"/>
</g>
<!-- MIXN -->
<g id="node44" class="node"><title>MIXN</title>
<polygon fill="white" stroke="black" points="1944.16,-148.8 1877.84,-148.8 1877.84,-112.8 1944.16,-112.8 1944.16,-148.8"/>
<text text-anchor="middle" x="1911" y="-126.6" font-family="Times Roman,serif" font-size="14.00">MIXN_9</text>
</g>
<!-- GTMP&#45;&gt;MIXN -->
<g id="edge154" class="edge"><title>GTMP&#45;&gt;MIXN</title>
<path fill="none" stroke="black" d="M1244.19,-200.099C1281.22,-196.453 1349.6,-189.832 1408,-184.8 1609.45,-167.443 1667.58,-196.954 1867.91,-148.599"/>
<polygon fill="black" stroke="black" points="1868.99,-151.939 1877.87,-146.16 1867.32,-145.139 1868.99,-151.939"/>
</g>
<!-- OTMP&#45;&gt;LNGN -->
<g id="edge156" class="edge"><title>OTMP&#45;&gt;LNGN</title>
<path fill="none" stroke="black" d="M2077.87,-186.353C2076.58,-185.791 2075.29,-185.269 2074,-184.8 1990.07,-154.168 1961.25,-167.96 1870.08,-148.887"/>
<polygon fill="black" stroke="black" points="1870.67,-145.435 1860.16,-146.735 1869.19,-152.276 1870.67,-145.435"/>
</g>
<!-- OTMP&#45;&gt;TIPS -->
<g id="edge158" class="edge"><title>OTMP&#45;&gt;TIPS</title>
<path fill="none" stroke="black" d="M2081.53,-184.631C2069.97,-175.678 2055.86,-164.756 2043.38,-155.095"/>
<polygon fill="black" stroke="black" points="2045.51,-152.317 2035.46,-148.963 2041.22,-157.852 2045.51,-152.317"/>
</g>
<!-- OTMP&#45;&gt;MIXN -->
<g id="edge160" class="edge"><title>OTMP&#45;&gt;MIXN</title>
<path fill="none" stroke="black" d="M2077.8,-186.536C2076.53,-185.925 2075.26,-185.343 2074,-184.8 2025.31,-163.774 2007.7,-167.383 1954.02,-148.93"/>
<polygon fill="black" stroke="black" points="1954.93,-145.538 1944.33,-145.497 1952.59,-152.136 1954.93,-145.538"/>
</g>
<!-- PLTO&#45;&gt;PEUR -->
<g id="edge5" class="edge"><title>PLTO&#45;&gt;PEUR</title>
<path fill="none" stroke="black" d="M1611.15,-185.187C1625.67,-175.773 1643.72,-164.066 1659.35,-153.927"/>
<polygon fill="black" stroke="black" points="1661.26,-156.859 1667.74,-148.481 1657.45,-150.986 1661.26,-156.859"/>
</g>
<!-- PLTO&#45;&gt;POTO -->
<g id="edge7" class="edge"><title>PLTO&#45;&gt;POTO</title>
<path fill="none" stroke="black" d="M1593.84,-184.631C1598.2,-176.592 1603.41,-166.967 1608.22,-158.092"/>
<polygon fill="black" stroke="black" points="1611.34,-159.673 1613.03,-149.213 1605.19,-156.339 1611.34,-159.673"/>
</g>
<!-- PLTO&#45;&gt;L649 -->
<g id="edge3" class="edge"><title>PLTO&#45;&gt;L649</title>
<path fill="none" stroke="black" d="M1574.16,-184.631C1569.8,-176.592 1564.59,-166.967 1559.78,-158.092"/>
<polygon fill="black" stroke="black" points="1562.81,-156.339 1554.97,-149.213 1556.66,-159.673 1562.81,-156.339"/>
</g>
<!-- PEUR&#45;&gt;ELOT -->
<g id="edge9" class="edge"><title>PEUR&#45;&gt;ELOT</title>
<path fill="none" stroke="black" d="M1691.21,-112.631C1689.61,-104.931 1687.7,-95.7743 1685.92,-87.2166"/>
<polygon fill="black" stroke="black" points="1689.3,-86.2892 1683.84,-77.2133 1682.45,-87.7169 1689.3,-86.2892"/>
</g>
<!-- POTO&#45;&gt;LOTO -->
<g id="edge11" class="edge"><title>POTO&#45;&gt;LOTO</title>
<path fill="none" stroke="black" d="M1612.91,-112.631C1608.44,-104.592 1603.09,-94.9666 1598.16,-86.0918"/>
<polygon fill="black" stroke="black" points="1601.15,-84.2551 1593.23,-77.2133 1595.03,-87.6546 1601.15,-84.2551"/>
</g>
<!-- POTO&#45;&gt;SLOT -->
<g id="edge13" class="edge"><title>POTO&#45;&gt;SLOT</title>
<path fill="none" stroke="black" d="M1599.48,-112.698C1595.41,-109.898 1591.16,-107.157 1587,-104.8 1567.59,-93.7949 1545.03,-83.7298 1525.64,-75.8394"/>
<polygon fill="black" stroke="black" points="1526.7,-72.4944 1516.12,-72.0323 1524.11,-78.9943 1526.7,-72.4944"/>
</g>
<!-- PCLO&#45;&gt;CLOT -->
<g id="edge15" class="edge"><title>PCLO&#45;&gt;CLOT</title>
<path fill="none" stroke="black" d="M1453.26,-184.631C1453.8,-176.931 1454.43,-167.774 1455.03,-159.217"/>
<polygon fill="black" stroke="black" points="1458.52,-159.432 1455.72,-149.213 1451.54,-158.947 1458.52,-159.432"/>
</g>
<!-- PSPT&#45;&gt;PLFT -->
<g id="edge18" class="edge"><title>PSPT&#45;&gt;PLFT</title>
<path fill="none" stroke="black" d="M112.028,-184.631C113.312,-176.931 114.838,-167.774 116.264,-159.217"/>
<polygon fill="black" stroke="black" points="119.739,-159.653 117.931,-149.213 112.835,-158.502 119.739,-159.653"/>
</g>
<!-- PLFT&#45;&gt;LF07 -->
<g id="edge20" class="edge"><title>PLFT&#45;&gt;LF07</title>
<path fill="none" stroke="black" d="M124.028,-112.631C125.312,-104.931 126.838,-95.7743 128.264,-87.2166"/>
<polygon fill="black" stroke="black" points="131.739,-87.6526 129.931,-77.2133 124.835,-86.5018 131.739,-87.6526"/>
</g>
<!-- PLFT&#45;&gt;LF15 -->
<g id="edge22" class="edge"><title>PLFT&#45;&gt;LF15</title>
<path fill="none" stroke="black" d="M102.831,-112.631C94.2848,-104.085 83.9443,-93.7443 74.6198,-84.4198"/>
<polygon fill="black" stroke="black" points="76.9592,-81.8095 67.4133,-77.2133 72.0095,-86.7592 76.9592,-81.8095"/>
</g>
<!-- PKNO&#45;&gt;KENO -->
<g id="edge25" class="edge"><title>PKNO&#45;&gt;KENO</title>
<path fill="none" stroke="black" d="M232.486,-184.631C231.844,-176.931 231.081,-167.774 230.368,-159.217"/>
<polygon fill="black" stroke="black" points="233.853,-158.888 229.534,-149.213 226.877,-159.469 233.853,-158.888"/>
</g>
<!-- PRPD&#45;&gt;RAPD -->
<g id="edge28" class="edge"><title>PRPD&#45;&gt;RAPD</title>
<path fill="none" stroke="black" d="M330.738,-184.631C330.204,-176.931 329.568,-167.774 328.973,-159.217"/>
<polygon fill="black" stroke="black" points="332.463,-158.947 328.279,-149.213 325.48,-159.432 332.463,-158.947"/>
</g>
<!-- PCAP&#45;&gt;CAPU -->
<g id="edge31" class="edge"><title>PCAP&#45;&gt;CAPU</title>
<path fill="none" stroke="black" d="M428.738,-184.631C428.204,-176.931 427.568,-167.774 426.973,-159.217"/>
<polygon fill="black" stroke="black" points="430.463,-158.947 426.279,-149.213 423.48,-159.432 430.463,-158.947"/>
</g>
<!-- POXO&#45;&gt;OXXO -->
<g id="edge34" class="edge"><title>POXO&#45;&gt;OXXO</title>
<path fill="none" stroke="black" d="M528.486,-184.631C527.844,-176.931 527.081,-167.774 526.368,-159.217"/>
<polygon fill="black" stroke="black" points="529.853,-158.888 525.534,-149.213 522.877,-159.469 529.853,-158.888"/>
</g>
<!-- PADD&#45;&gt;ADDN -->
<g id="edge57" class="edge"><title>PADD&#45;&gt;ADDN</title>
<path fill="none" stroke="black" d="M1114.32,-184.631C1117.49,-176.762 1121.27,-167.371 1124.78,-158.653"/>
<polygon fill="black" stroke="black" points="1128.09,-159.797 1128.58,-149.213 1121.6,-157.181 1128.09,-159.797"/>
</g>
<!-- PJKR&#45;&gt;JKLO -->
<g id="edge37" class="edge"><title>PJKR&#45;&gt;JKLO</title>
<path fill="none" stroke="black" stroke-dasharray="5,2" d="M763.355,-184.631C768.433,-176.508 774.523,-166.764 780.118,-157.812"/>
<polygon fill="black" stroke="black" points="783.16,-159.548 785.492,-149.213 777.224,-155.838 783.16,-159.548"/>
</g>
<!-- PJKR&#45;&gt;JKSL -->
<g id="edge39" class="edge"><title>PJKR&#45;&gt;JKSL</title>
<path fill="none" stroke="black" stroke-dasharray="5,2" d="M724.969,-188.056C706.835,-178.165 682.586,-164.938 661.963,-153.689"/>
<polygon fill="black" stroke="black" points="663.533,-150.558 653.078,-148.842 660.181,-156.704 663.533,-150.558"/>
</g>
<!-- PJKR&#45;&gt;JKOX -->
<g id="edge41" class="edge"><title>PJKR&#45;&gt;JKOX</title>
<path fill="none" stroke="black" stroke-dasharray="5,2" d="M740.897,-184.631C735.933,-176.508 729.978,-166.764 724.507,-157.812"/>
<polygon fill="black" stroke="black" points="727.454,-155.921 719.253,-149.213 721.481,-159.571 727.454,-155.921"/>
</g>
<!-- PADP&#45;&gt;PADN -->
<g id="edge53" class="edge"><title>PADP&#45;&gt;PADN</title>
<path fill="none" stroke="black" d="M877,-184.631C877,-176.931 877,-167.774 877,-159.217"/>
<polygon fill="black" stroke="black" points="880.5,-159.213 877,-149.213 873.5,-159.213 880.5,-159.213"/>
</g>
<!-- PADP&#45;&gt;JKLO -->
<g id="edge43" class="edge"><title>PADP&#45;&gt;JKLO</title>
<path fill="none" stroke="black" d="M856.813,-184.631C847.149,-175.934 835.42,-165.378 824.918,-155.927"/>
<polygon fill="black" stroke="black" points="826.955,-153.051 817.181,-148.963 822.272,-158.254 826.955,-153.051"/>
</g>
<!-- PADP&#45;&gt;JKSL -->
<g id="edge45" class="edge"><title>PADP&#45;&gt;JKSL</title>
<path fill="none" stroke="black" d="M849.94,-197.331C810.729,-189.115 735.778,-172.321 663.77,-148.818"/>
<polygon fill="black" stroke="black" points="664.685,-145.434 654.092,-145.612 662.484,-152.079 664.685,-145.434"/>
</g>
<!-- PADP&#45;&gt;JKOX -->
<g id="edge47" class="edge"><title>PADP&#45;&gt;JKOX</title>
<path fill="none" stroke="black" d="M849.847,-191.232C823.803,-180.136 783.998,-163.178 753.176,-150.047"/>
<polygon fill="black" stroke="black" points="754.496,-146.805 743.925,-146.105 751.753,-153.245 754.496,-146.805"/>
</g>
<!-- PADP&#45;&gt;JKKE -->
<g id="edge49" class="edge"><title>PADP&#45;&gt;JKKE</title>
<path fill="none" stroke="black" d="M897.187,-184.631C906.851,-175.934 918.58,-165.378 929.082,-155.927"/>
<polygon fill="black" stroke="black" points="931.728,-158.254 936.819,-148.963 927.045,-153.051 931.728,-158.254"/>
</g>
<!-- PADP&#45;&gt;JKEU -->
<g id="edge51" class="edge"><title>PADP&#45;&gt;JKEU</title>
<path fill="none" stroke="black" d="M904.366,-191.072C930.291,-179.961 969.686,-163.077 1000.19,-150.003"/>
<polygon fill="black" stroke="black" points="1001.94,-153.06 1009.76,-145.904 999.187,-146.626 1001.94,-153.06"/>
</g>
<!-- PADN&#45;&gt;JOKR -->
<g id="edge55" class="edge"><title>PADN&#45;&gt;JOKR</title>
<path fill="none" stroke="black" d="M901.018,-112.6C904.948,-109.872 909.033,-107.179 913,-104.8 928.499,-95.5032 946.146,-86.4857 961.932,-78.9343"/>
<polygon fill="black" stroke="black" points="963.43,-82.0978 970.981,-74.6665 960.444,-75.7667 963.43,-82.0978"/>
</g>
<!-- PODD&#45;&gt;LNGN -->
<g id="edge60" class="edge"><title>PODD&#45;&gt;LNGN</title>
<path fill="none" stroke="black" d="M1803,-184.631C1803,-176.931 1803,-167.774 1803,-159.217"/>
<polygon fill="black" stroke="black" points="1806.5,-159.213 1803,-149.213 1799.5,-159.213 1806.5,-159.213"/>
</g>
<!-- PODD&#45;&gt;MIXN -->
<g id="edge64" class="edge"><title>PODD&#45;&gt;MIXN</title>
<path fill="none" stroke="black" d="M1830.25,-184.631C1843.94,-175.507 1860.69,-164.339 1875.38,-154.545"/>
<polygon fill="black" stroke="black" points="1877.38,-157.422 1883.76,-148.963 1873.49,-151.598 1877.38,-157.422"/>
</g>
<!-- PSCO&#45;&gt;TIPS -->
<g id="edge62" class="edge"><title>PSCO&#45;&gt;TIPS</title>
<path fill="none" stroke="black" d="M1994.8,-184.631C1997.29,-176.846 2000.25,-167.573 2003.01,-158.935"/>
<polygon fill="black" stroke="black" points="2006.41,-159.804 2006.12,-149.213 1999.74,-157.674 2006.41,-159.804"/>
</g>
<!-- PMXN&#45;&gt;MIXN -->
<g id="edge66" class="edge"><title>PMXN&#45;&gt;MIXN</title>
<path fill="none" stroke="black" d="M1897.54,-184.631C1899.49,-176.846 1901.81,-167.573 1903.97,-158.935"/>
<polygon fill="black" stroke="black" points="1907.37,-159.764 1906.4,-149.213 1900.58,-158.066 1907.37,-159.764"/>
</g>
</g>
</svg>
